REM DIRINDEX 1\2\3,1\2\4,1\2\5,1\2\6
REM DIRNAME cjc157,folder01,folder02,folder03,folder04,folder05
TITLE ""
FILE "039 039.mp3" MP3
  TRACK 01 AUDIO
    TITLE "0:"
    INDEX 01 00:00:00
  TRACK 02 AUDIO
    TITLE "3:cjc157_1480"
    INDEX 01 00:00:09
  TRACK 03 AUDIO
    TITLE "0:"
    INDEX 01 00:01:36
  TRACK 04 AUDIO
    TITLE "4:cjc157_1481"
    INDEX 01 00:02:08
  TRACK 05 AUDIO
    TITLE "0:"
    INDEX 01 00:03:25
  TRACK 06 AUDIO
    TITLE "5:cjc157_1482"
    INDEX 01 00:03:68
  TRACK 07 AUDIO
    TITLE "0:"
    INDEX 01 00:06:24
  TRACK 08 AUDIO
    TITLE "5:cjc157_1483"
    INDEX 01 00:06:71
  TRACK 09 AUDIO
    TITLE "0:"
    INDEX 01 00:08:60
  TRACK 10 AUDIO
    TITLE "3:cjc157_1484"
    INDEX 01 00:09:28
  TRACK 11 AUDIO
    TITLE "0:"
    INDEX 01 00:10:65
  TRACK 12 AUDIO
    TITLE "4:cjc157_1485"
    INDEX 01 00:11:33
  TRACK 13 AUDIO
    TITLE "0:"
    INDEX 01 00:12:52
  TRACK 14 AUDIO
    TITLE "5:cjc157_1486"
    INDEX 01 00:13:22
  TRACK 15 AUDIO
    TITLE "0:"
    INDEX 01 00:17:27
  TRACK 16 AUDIO
    TITLE "5:cjc157_1487"
    INDEX 01 00:17:74
  TRACK 17 AUDIO
    TITLE "0:"
    INDEX 01 00:20:39
  TRACK 18 AUDIO
    TITLE "5:cjc157_1488"
    INDEX 01 00:21:17
  TRACK 19 AUDIO
    TITLE "0:"
    INDEX 01 00:23:46
  TRACK 20 AUDIO
    TITLE "3:cjc157_1489"
    INDEX 01 00:24:24
  TRACK 21 AUDIO
    TITLE "0:"
    INDEX 01 00:25:52
  TRACK 22 AUDIO
    TITLE "4:cjc157_1490"
    INDEX 01 00:26:22
  TRACK 23 AUDIO
    TITLE "0:"
    INDEX 01 00:27:38
  TRACK 24 AUDIO
    TITLE "5:cjc157_1491"
    INDEX 01 00:28:08
  TRACK 25 AUDIO
    TITLE "0:"
    INDEX 01 00:30:50
  TRACK 26 AUDIO
    TITLE "5:cjc157_1492"
    INDEX 01 00:31:26
  TRACK 27 AUDIO
    TITLE "0:"
    INDEX 01 00:32:52
  TRACK 28 AUDIO
    TITLE "3:cjc157_1493"
    INDEX 01 00:33:22
  TRACK 29 AUDIO
    TITLE "0:"
    INDEX 01 00:34:47
  TRACK 30 AUDIO
    TITLE "4:cjc157_1494"
    INDEX 01 00:35:17
  TRACK 31 AUDIO
    TITLE "0:"
    INDEX 01 00:36:31
  TRACK 32 AUDIO
    TITLE "5:cjc157_1495"
    INDEX 01 00:37:01
  TRACK 33 AUDIO
    TITLE "0:"
    INDEX 01 00:40:30
  TRACK 34 AUDIO
    TITLE "3:cjc157_1496"
    INDEX 01 00:40:72
  TRACK 35 AUDIO
    TITLE "0:"
    INDEX 01 00:42:37
  TRACK 36 AUDIO
    TITLE "4:cjc157_1497"
    INDEX 01 00:43:03
  TRACK 37 AUDIO
    TITLE "0:"
    INDEX 01 00:45:67
  TRACK 38 AUDIO
    TITLE "5:cjc157_1498"
    INDEX 01 00:46:39
  TRACK 39 AUDIO
    TITLE "0:"
    INDEX 01 00:49:35
  TRACK 40 AUDIO
    TITLE "5:cjc157_1499"
    INDEX 01 00:50:05
  TRACK 41 AUDIO
    TITLE "0:"
    INDEX 01 00:51:65
  TRACK 42 AUDIO
    TITLE "3:cjc157_1500"
    INDEX 01 00:52:36
  TRACK 43 AUDIO
    TITLE "0:"
    INDEX 01 00:54:07
  TRACK 44 AUDIO
    TITLE "4:cjc157_1501"
    INDEX 01 00:54:52
  TRACK 45 AUDIO
    TITLE "0:"
    INDEX 01 00:56:08
  TRACK 46 AUDIO
    TITLE "5:cjc157_1502"
    INDEX 01 00:56:51
  TRACK 47 AUDIO
    TITLE "0:"
    INDEX 01 00:59:34
  TRACK 48 AUDIO
    TITLE "5:cjc157_1503"
    INDEX 01 01:00:06
  TRACK 49 AUDIO
    TITLE "0:"
    INDEX 01 01:03:00
  TRACK 50 AUDIO
    TITLE "3:cjc157_1504"
    INDEX 01 01:03:45
  TRACK 51 AUDIO
    TITLE "0:"
    INDEX 01 01:05:13
  TRACK 52 AUDIO
    TITLE "4:cjc157_1505"
    INDEX 01 01:05:58
  TRACK 53 AUDIO
    TITLE "0:"
    INDEX 01 01:08:60
  TRACK 54 AUDIO
    TITLE "5:cjc157_1506"
    INDEX 01 01:09:32
  TRACK 55 AUDIO
    TITLE "0:"
    INDEX 01 01:12:48
  TRACK 56 AUDIO
    TITLE "5:cjc157_1507"
    INDEX 01 01:13:20
  TRACK 57 AUDIO
    TITLE "0:"
    INDEX 01 01:15:35
  TRACK 58 AUDIO
    TITLE "3:cjc157_1508"
    INDEX 01 01:16:03
  TRACK 59 AUDIO
    TITLE "0:"
    INDEX 01 01:17:49
  TRACK 60 AUDIO
    TITLE "4:cjc157_1509"
    INDEX 01 01:18:17
  TRACK 61 AUDIO
    TITLE "0:"
    INDEX 01 01:19:48
  TRACK 62 AUDIO
    TITLE "5:cjc157_1510"
    INDEX 01 01:20:22
  TRACK 63 AUDIO
    TITLE "0:"
    INDEX 01 01:23:24
  TRACK 64 AUDIO
    TITLE "5:cjc157_1511"
    INDEX 01 01:23:73
  TRACK 65 AUDIO
    TITLE "0:"
    INDEX 01 01:27:55
  TRACK 66 AUDIO
    TITLE "3:cjc157_1512"
    INDEX 01 01:28:22
  TRACK 67 AUDIO
    TITLE "0:"
    INDEX 01 01:30:24
  TRACK 68 AUDIO
    TITLE "4:cjc157_1513"
    INDEX 01 01:30:67
  TRACK 69 AUDIO
    TITLE "0:"
    INDEX 01 01:32:00
  TRACK 70 AUDIO
    TITLE "5:cjc157_1514"
    INDEX 01 01:32:43
  TRACK 71 AUDIO
    TITLE "0:"
    INDEX 01 01:35:26
  TRACK 72 AUDIO
    TITLE "3:cjc157_1515"
    INDEX 01 01:35:71
  TRACK 73 AUDIO
    TITLE "0:"
    INDEX 01 01:37:46
  TRACK 74 AUDIO
    TITLE "4:cjc157_1516"
    INDEX 01 01:38:18
  TRACK 75 AUDIO
    TITLE "0:"
    INDEX 01 01:39:37
  TRACK 76 AUDIO
    TITLE "5:cjc157_1517"
    INDEX 01 01:40:05
  TRACK 77 AUDIO
    TITLE "0:"
    INDEX 01 01:43:21
